<svg xmlns="http://www.w3.org/2000/svg" version="1.1" xmlns:xlink="http://www.w3.org/1999/xlink" xmlns:svgjs="http://svgjs.dev/svgjs" width="2000" height="181" viewBox="0 0 2000 181"><g transform="matrix(1,0,0,1,-1.2121212121212466,-0.3415729849574518)"><svg viewBox="0 0 396 36" data-background-color="#ffffff" preserveAspectRatio="xMidYMid meet" height="181" width="2000" xmlns="http://www.w3.org/2000/svg" xmlns:xlink="http://www.w3.org/1999/xlink"><g id="tight-bounds" transform="matrix(1,0,0,1,0.2400000000000091,0.06793716827883145)"><svg viewBox="0 0 395.52 35.86412566344235" height="35.86412566344235" width="395.52"><g><svg viewBox="0 0 445.0900711691183 40.35893568962317" height="35.86412566344235" width="395.52"><g transform="matrix(1,0,0,1,0,0.7106131947280545)"><svg viewBox="0 0 395.52 38.937709300167064" height="38.937709300167064" width="395.52"><g id="textblocktransform"><svg viewBox="0 0 395.52 38.937709300167064" height="38.937709300167064" width="395.52" id="textblock"><g><svg viewBox="0 0 395.52 38.937709300167064" height="38.937709300167064" width="395.52"><g transform="matrix(1,0,0,1,0,0)"><svg width="395.52" viewBox="1.54 -38.35 394.52 38.84" height="38.937709300167064" data-palette-color="#31135e"><path d="M6.23 0L1.54 0 14.84-35.55 19.68-35.55 33.11 0 28.39 0 24.29-11.06 10.3-11.06 6.23 0ZM17.29-30.96L11.4-14.6 23.19-14.6 17.29-30.96ZM46.19 0.2L46.19 0.2Q43.85 0.2 42.25-0.4 40.65-1 39.83-2.67 39.01-4.35 39.01-7.57L39.01-7.57 39.01-37.6 43.43-38.09 43.43-7.62Q43.43-5.64 43.67-4.74 43.92-3.83 44.66-3.54 45.41-3.25 46.87-3.13L46.87-3.13Q47.26-3.1 47.63-3.08 48-3.05 48.39-3.03L48.39-3.03 48.04 0.2Q47.58 0.2 47.12 0.2 46.65 0.2 46.19 0.2ZM61.86 0.2L61.86 0.2Q59.52 0.2 57.92-0.4 56.32-1 55.5-2.67 54.68-4.35 54.68-7.57L54.68-7.57 54.68-37.6 59.1-38.09 59.1-7.62Q59.1-5.64 59.35-4.74 59.59-3.83 60.33-3.54 61.08-3.25 62.54-3.13L62.54-3.13Q62.93-3.1 63.3-3.08 63.67-3.05 64.06-3.03L64.06-3.03 63.72 0.2Q63.25 0.2 62.79 0.2 62.32 0.2 61.86 0.2ZM85.07 0L80.39 0 93.69-35.55 98.53-35.55 111.95 0 107.24 0 103.14-11.06 89.15-11.06 85.07 0ZM96.13-30.96L90.25-14.6 102.04-14.6 96.13-30.96ZM129.14 0.49L129.14 0.49Q126.55 0.49 124.61-0.45 122.67-1.39 121.47-2.81L121.47-2.81 121.2 0 117.59 0 117.59-37.6 122.03-38.09 122.03-27.08 121.86-21.53Q122.77-23.73 124.07-24.91 125.38-26.1 126.92-26.55 128.45-27 129.97-27L129.97-27Q133.56-27 135.86-25.23 138.17-23.46 139.28-20.36 140.39-17.26 140.39-13.26L140.39-13.26Q140.39-9.13 139.07-6.04 137.76-2.95 135.25-1.23 132.75 0.49 129.14 0.49ZM128.87-2.81L128.87-2.81Q131.31-2.81 132.85-4.08 134.39-5.35 135.12-7.69 135.85-10.03 135.85-13.23L135.85-13.23Q135.85-16.28 135.25-18.64 134.66-21 133.24-22.34 131.82-23.68 129.33-23.68L129.33-23.68Q126.72-23.68 125.06-22.44 123.4-21.19 122.63-18.95 121.86-16.7 121.86-13.65L121.86-13.65 121.86-6.1Q122.67-5 123.74-4.27 124.82-3.54 126.12-3.17 127.43-2.81 128.87-2.81ZM158.11 0.49L158.11 0.49Q154.28 0.49 151.61-1.23 148.94-2.95 147.54-6.04 146.15-9.13 146.15-13.23L146.15-13.23Q146.15-17.43 147.52-20.52 148.89-23.61 151.56-25.31 154.23-27 158.11-27L158.11-27Q162-27 164.66-25.31 167.32-23.61 168.69-20.52 170.05-17.43 170.05-13.23L170.05-13.23Q170.05-9.13 168.66-6.04 167.27-2.95 164.61-1.23 161.95 0.49 158.11 0.49ZM158.11-2.81L158.11-2.81Q160.7-2.81 162.33-4.16 163.95-5.52 164.72-7.86 165.49-10.21 165.49-13.21L165.49-13.21Q165.49-16.28 164.72-18.64 163.95-21 162.31-22.34 160.68-23.68 158.11-23.68L158.11-23.68Q154.26-23.68 152.49-20.75 150.72-17.82 150.72-13.21L150.72-13.21Q150.72-10.21 151.49-7.86 152.26-5.52 153.89-4.16 155.53-2.81 158.11-2.81ZM186.19 0.49L186.19 0.49Q181.5 0.49 179.1-2.1 176.69-4.69 176.69-9.86L176.69-9.86 176.69-26.42 181.13-26.42 181.13-9.96Q181.13-7.69 181.68-6.08 182.23-4.47 183.48-3.61 184.72-2.76 186.8-2.76L186.8-2.76Q188.9-2.76 190.33-3.38 191.75-4 192.67-4.83 193.59-5.66 194.07-6.32L194.07-6.32 194.07-26.42 198.49-26.42 198.49 0 194.66 0 194.42-3.3Q193.1-1.64 191.1-0.57 189.09 0.49 186.19 0.49ZM216.85 0.2L216.85 0.2Q214.04 0.2 212.32-0.23 210.6-0.66 209.71-1.61 208.82-2.56 208.5-4.17 208.18-5.79 208.18-8.15L208.18-8.15 208.18-23.71 204.01-23.71 204.13-26.17 208.31-26.39 208.94-33.54 212.63-33.81 212.63-26.42 219.66-26.42 219.66-23.71 212.63-23.71 212.63-8.13Q212.63-6.05 212.86-4.98 213.09-3.91 213.99-3.5 214.9-3.1 216.85-3.03L216.85-3.03Q217.51-3 218.17-2.98 218.83-2.95 219.49-2.93L219.49-2.93 219.29 0.2Q218.68 0.2 218.07 0.2 217.46 0.2 216.85 0.2ZM247.34 0.27L247.34 0.27Q245.63 0.27 243.76 0.13 241.89 0 239.87-0.24L239.87-0.24 239.87-35.01Q242.48-35.35 244.79-35.52 247.09-35.69 249.1-35.69L249.1-35.69Q254.78-35.69 258.43-34.45 262.08-33.2 264.12-30.88 266.16-28.56 266.98-25.34 267.8-22.12 267.8-18.19L267.8-18.19Q267.8-14.09 266.75-10.71 265.7-7.32 263.33-4.86 260.96-2.39 257.03-1.06 253.1 0.27 247.34 0.27ZM248.58-3.08L248.58-3.08Q252.95-3.08 255.79-4.19 258.62-5.3 260.22-7.31 261.82-9.33 262.45-12.06 263.09-14.79 263.09-18.07L263.09-18.07Q263.09-21.34 262.51-23.97 261.94-26.61 260.46-28.48 258.98-30.35 256.33-31.35 253.69-32.35 249.51-32.35L249.51-32.35Q248.39-32.35 247.18-32.28 245.97-32.2 244.6-32.06L244.6-32.06 244.6-3.3Q245.68-3.2 246.68-3.14 247.68-3.08 248.58-3.08ZM280.44 0L276 0 276-26.42 280.44-26.42 280.44 0ZM278.22-32.47L278.22-32.47Q276.73-32.47 275.92-33.25 275.12-34.03 275.12-35.45L275.12-35.45Q275.12-36.82 275.92-37.59 276.73-38.35 278.22-38.35L278.22-38.35Q279.71-38.35 280.51-37.59 281.32-36.82 281.32-35.45L281.32-35.45Q281.32-34.03 280.51-33.25 279.71-32.47 278.22-32.47ZM295.67 0.49L295.67 0.49Q291.89 0.49 289.52-1.42 287.15-3.32 287.15-7.18L287.15-7.18Q287.15-8.94 287.78-10.3 288.4-11.67 289.67-12.61 290.94-13.55 292.94-14.04 294.94-14.53 297.68-14.53L297.68-14.53 303.63-14.53 303.63-17.58Q303.63-20.78 302.19-22.2 300.75-23.63 297.85-23.63L297.85-23.63Q295.97-23.63 293.61-23.03 291.25-22.44 289.37-21.14L289.37-21.14 288.08-24.51Q289.42-25.37 291.05-25.92 292.67-26.46 294.44-26.73 296.21-27 297.97-27L297.97-27Q300.95-27 303.22-26.05 305.49-25.1 306.77-22.95 308.05-20.8 308.05-17.21L308.05-17.21 308.05 0 304.34 0 304.02-3.25Q302.97-2 301.73-1.17 300.48-0.34 298.98 0.07 297.48 0.49 295.67 0.49ZM296.36-2.66L296.36-2.66Q298.7-2.66 300.56-3.64 302.41-4.61 303.63-6.18L303.63-6.18 303.63-11.72 298.48-11.72Q295.8-11.72 294.23-11.21 292.67-10.69 292.02-9.68 291.38-8.67 291.38-7.13L291.38-7.13Q291.38-4.64 292.83-3.65 294.28-2.66 296.36-2.66ZM320.18 0L315.74 0 315.74-26.42 319.43-26.42 319.89-21.26Q321.11-24.19 323.34-25.6 325.58-27 328.8-27L328.8-27Q333.27-27 335.37-24.13 337.47-21.26 337.47-15.92L337.47-15.92 337.47 0 333.05 0 333.05-16.24Q333.05-18.48 332.58-20.15 332.12-21.83 331-22.75 329.87-23.68 327.87-23.68L327.87-23.68Q325.82-23.68 324.37-23 322.92-22.31 321.99-21.11 321.06-19.9 320.62-18.31 320.18-16.72 320.18-14.94L320.18-14.94 320.18 0ZM349.67 0L345.23 0 345.23-26.42 348.92-26.42 349.38-21.26Q350.6-24.19 352.83-25.6 355.07-27 358.29-27L358.29-27Q362.76-27 364.86-24.13 366.96-21.26 366.96-15.92L366.96-15.92 366.96 0 362.54 0 362.54-16.24Q362.54-18.48 362.07-20.15 361.61-21.83 360.49-22.75 359.36-23.68 357.36-23.68L357.36-23.68Q355.31-23.68 353.86-23 352.41-22.31 351.48-21.11 350.55-19.9 350.11-18.31 349.67-16.72 349.67-14.94L349.67-14.94 349.67 0ZM386.29 0.49L386.29 0.49Q382.73 0.49 379.86-1.15 376.99-2.78 375.32-5.85 373.64-8.91 373.64-13.13L373.64-13.13Q373.64-17.53 375.28-20.63 376.92-23.73 379.67-25.37 382.43-27 385.75-27L385.75-27Q389-27 391.3-25.56 393.59-24.12 394.82-21.46 396.06-18.8 396.06-15.14L396.06-15.14Q396.06-14.77 396-14.14 395.93-13.5 395.89-12.99 395.84-12.48 395.84-12.43L395.84-12.43 378.19-12.43Q378.38-9.06 379.54-6.93 380.7-4.81 382.59-3.81 384.48-2.81 386.85-2.81L386.85-2.81Q389.12-2.81 390.73-3.45 392.35-4.1 393.98-5.03L393.98-5.03 394.3-5.03 395.32-2.12Q393.69-1 391.38-0.26 389.07 0.49 386.29 0.49ZM378.26-15.31L378.26-15.31 392.25-15.31Q392.2-19.29 390.67-21.5 389.15-23.71 385.97-23.71L385.97-23.71Q382.78-23.71 380.69-21.45 378.6-19.19 378.26-15.31Z" opacity="1" transform="matrix(1,0,0,1,0,0)" fill="#31135e" class="wordmark-text-0" data-fill-palette-color="primary" id="text-0"></path></svg></g></svg></g></svg></g></svg></g><g transform="matrix(1,0,0,1,404.7122586607462,0)"><svg viewBox="0 0 40.37781250837209 40.35893568962317" height="40.35893568962317" width="40.37781250837209"><g><svg xmlns="http://www.w3.org/2000/svg" xmlns:xlink="http://www.w3.org/1999/xlink" version="1.1" x="0" y="0" viewBox="0.7607695154586737 0.7749999999999999 30.43923048454133 30.424999999999997" enable-background="new 0 0 32 32" xml:space="preserve" height="40.35893568962317" width="40.37781250837209" class="icon-icon-0" data-fill-palette-color="accent" id="icon-0"><g fill="#31135e" data-fill-palette-color="accent"><g fill="#31135e" data-fill-palette-color="accent"><path fill="#31135e" d="M1.5 31.2c-0.2 0-0.4-0.1-0.5-0.2-0.2-0.2-0.3-0.4-0.2-0.7l3.7-19.1c0.1-0.3 0.3-0.6 0.6-0.6l9.6-1.3c0.2 0 0.5 0 0.6 0.2l7.2 7.2c0.2 0.2 0.2 0.4 0.2 0.6l-1.3 9.6c0 0.3-0.3 0.6-0.6 0.6L1.6 31.2H1.5zM5.8 12.1L2.4 29.6l17.5-3.4 1.2-8.7-6.7-6.7L5.8 12.1z" data-fill-palette-color="accent"></path></g><g fill="#31135e" data-fill-palette-color="accent"><rect x="5.2" y="19.8" transform="matrix(-0.7071 -0.7071 0.7071 -0.7071 -8.3465 48.7211)" fill="#31135e" width="1.5" height="12.6" data-fill-palette-color="accent"></rect></g><g fill="#31135e" data-fill-palette-color="accent"><path fill="#31135e" d="M12 23.1c-0.8 0-1.6-0.3-2.2-0.9-0.6-0.6-0.9-1.3-0.9-2.2 0-0.8 0.3-1.6 0.9-2.2 1.2-1.2 3.2-1.2 4.3 0 1.2 1.2 1.2 3.1 0 4.3C13.6 22.8 12.8 23.1 12 23.1zM12 18.4c-0.4 0-0.8 0.2-1.1 0.5s-0.5 0.7-0.5 1.1 0.2 0.8 0.5 1.1c0.6 0.6 1.6 0.6 2.2 0 0.6-0.6 0.6-1.6 0-2.2C12.8 18.6 12.4 18.4 12 18.4z" data-fill-palette-color="accent"></path></g><g fill="#31135e" data-fill-palette-color="accent"><path fill="#31135e" d="M23.8 18.7c-0.9 0-1.8-0.4-2.4-1l-7.1-7.1c-1.3-1.3-1.3-3.5 0-4.8L19.1 1c0.3-0.3 0.8-0.3 1.1 0L31 11.8c0.1 0.1 0.2 0.3 0.2 0.5s-0.1 0.4-0.2 0.5l-4.9 4.9C25.5 18.4 24.7 18.7 23.8 18.7zM19.7 2.6l-4.3 4.3c-0.7 0.7-0.7 2 0 2.7l7.1 7.1c0.7 0.7 2 0.7 2.7 0l4.3-4.3L19.7 2.6z" data-fill-palette-color="accent"></path></g></g></svg></g></svg></g></svg></g><defs></defs></svg><rect width="395.52" height="35.86412566344235" fill="none" stroke="none" visibility="hidden"></rect></g></svg></g></svg>